<?xml version="1.0" standalone="no"?>
<!DOCTYPE svg PUBLIC "-//W3C//DTD SVG 20010904//EN"
 "http://www.w3.org/TR/2001/REC-SVG-20010904/DTD/svg10.dtd">
<svg version="1.0" xmlns="http://www.w3.org/2000/svg"
 width="2656.000000pt" height="2656.000000pt" viewBox="0 0 2656.000000 2656.000000"
 preserveAspectRatio="xMidYMid meet">
<metadata>
Created by potrace 1.11, written by Peter Selinger 2001-2013
</metadata>
<g transform="translate(0.000000,2656.000000) scale(0.100000,-0.100000)"
fill="#000000" stroke="none">
<path d="M11705 24530 c-987 -54 -1927 -213 -2905 -491 -1145 -326 -2300 -823
-3200 -1377 -239 -147 -590 -391 -590 -410 0 -4 105 -134 233 -288 127 -154
247 -299 265 -321 17 -22 92 -111 165 -199 72 -87 229 -276 347 -419 118 -143
305 -368 415 -501 110 -132 247 -298 305 -369 58 -70 110 -133 115 -139 6 -6
163 -195 349 -421 186 -225 346 -418 355 -428 16 -16 23 -15 141 39 568 255
1305 507 1989 679 1658 416 3224 466 4601 145 2160 -502 3500 -1869 3899
-3975 91 -478 116 -846 100 -1465 -13 -490 -38 -866 -134 -2040 -99 -1199
-128 -1663 -146 -2296 -36 -1241 89 -2073 377 -2504 24 -36 53 -76 65 -90 l21
-25 -6 35 c-2 19 -14 89 -25 155 -110 637 -117 1543 -20 2420 73 668 190 1294
380 2035 567 2218 724 3561 543 4645 -78 467 -250 943 -470 1301 -24 39 -44
75 -44 79 0 14 58 -44 158 -160 305 -354 579 -913 727 -1485 138 -538 192
-1032 182 -1679 -11 -710 -85 -1233 -427 -3016 -265 -1380 -366 -2022 -425
-2695 -93 -1072 -2 -1867 277 -2424 48 -96 146 -256 157 -256 4 0 0 43 -10 95
-10 52 -28 163 -39 247 -140 1067 -58 2296 230 3452 74 294 138 510 261 881
316 951 516 1788 648 2720 134 937 167 1904 96 2725 -87 984 -306 1824 -671
2565 -236 481 -520 890 -874 1258 -67 70 -118 127 -113 127 27 0 358 -277 537
-450 972 -939 1647 -2228 1937 -3698 12 -62 25 -109 29 -105 30 32 51 655 31
924 -103 1379 -708 2716 -1753 3874 -226 250 -483 504 -718 710 -69 61 -127
112 -130 116 -3 3 -68 57 -145 120 -864 707 -1933 1344 -2880 1716 -933 367
-1851 570 -2960 654 -184 13 -1046 20 -1250 9z"/>
<path d="M11865 19619 c-1217 -68 -2495 -400 -3645 -947 -63 -30 -130 -61
-148 -68 -29 -13 -31 -17 -20 -32 12 -16 229 -279 362 -438 28 -33 67 -81 87
-105 20 -24 86 -103 145 -175 60 -72 168 -202 239 -289 72 -87 135 -163 140
-169 6 -6 75 -90 155 -186 79 -96 189 -229 245 -296 55 -67 116 -141 136 -165
20 -24 91 -109 158 -189 66 -80 121 -148 121 -152 0 -5 -213 -114 -472 -244
-260 -130 -475 -238 -476 -239 -2 -2 17 -57 43 -122 106 -267 266 -526 442
-713 28 -30 62 -67 76 -82 98 -106 341 -291 520 -397 225 -132 480 -244 810
-357 424 -145 794 -242 1927 -504 773 -179 1041 -257 1334 -389 677 -304 1137
-765 1320 -1322 33 -102 62 -227 53 -235 -2 -2 -21 22 -42 53 -265 399 -623
720 -1035 928 -255 129 -602 240 -1010 324 -80 16 -350 64 -600 106 -658 110
-896 155 -1205 230 -548 133 -1084 324 -1513 539 -293 147 -584 339 -832 550
-95 81 -386 385 -472 492 -514 644 -830 1477 -884 2326 -4 72 -10 105 -18 103
-379 -117 -836 -406 -1126 -711 -930 -979 -1016 -2486 -251 -4393 97 -240 315
-728 335 -748 1 -2 70 34 152 80 82 46 246 137 364 202 323 177 758 418 905
500 72 40 157 87 190 105 33 18 119 65 190 105 72 40 243 134 380 210 138 76
361 200 496 275 136 75 255 140 264 144 22 8 39 69 -171 -609 -96 -313 -206
-669 -243 -790 l-68 -220 -1158 -288 c-638 -158 -1161 -290 -1163 -292 -3 -2
11 -105 31 -227 207 -1277 327 -2586 327 -3553 0 -360 -22 -820 -46 -962 -5
-31 -3 -33 24 -33 106 0 505 92 766 177 1272 413 2373 1275 3170 2483 84 128
246 395 246 406 0 5 -28 30 -62 54 -35 25 -108 90 -163 145 -298 297 -474 659
-526 1078 -16 136 -6 449 20 587 80 435 242 827 443 1072 430 527 1221 704
2021 451 451 -142 826 -372 1167 -713 158 -158 236 -253 365 -445 198 -297
318 -575 420 -975 195 -771 558 -1412 1230 -2178 106 -120 533 -543 680 -673
397 -351 781 -645 1190 -911 206 -134 265 -170 265 -160 0 5 -33 40 -72 78
-365 348 -734 882 -978 1414 -206 450 -352 947 -419 1430 -40 291 -46 389 -46
750 1 407 10 525 80 985 78 516 95 706 102 1180 9 598 -30 1078 -133 1597
-251 1277 -812 2260 -1646 2886 -1190 891 -2923 1001 -5071 321 -88 -28 -161
-48 -163 -46 -6 6 309 140 457 196 611 229 1260 380 1929 447 212 21 770 30
985 15 640 -43 1215 -169 1768 -387 702 -276 1250 -805 1675 -1614 468 -892
747 -2099 833 -3610 14 -229 17 -1113 5 -1175 -5 -26 -4 -36 2 -30 12 12 61
348 96 655 155 1334 149 2644 -15 3680 -165 1044 -503 1879 -976 2417 -231
262 -570 554 -896 772 -895 598 -1996 941 -3247 1011 -201 11 -669 11 -875 -1z"/>
<path d="M15671 5639 c-60 -17 -94 -24 -166 -34 -16 -3 -39 -7 -50 -9 -29 -6
-154 -19 -200 -22 -22 -1 -385 -2 -807 -3 l-767 -1 4 -21 c3 -12 6 -23 7 -24
2 -1 33 -5 70 -8 37 -3 87 -15 112 -26 63 -28 131 -94 163 -160 l28 -56 1
-1436 c1 -1418 1 -1437 -19 -1499 -24 -74 -83 -144 -155 -183 -51 -28 -84 -35
-164 -36 -45 -1 -48 -3 -46 -26 l2 -25 1037 0 1037 0 13 38 c6 20 14 42 18 47
3 6 6 15 8 20 2 10 38 112 97 275 15 41 43 118 61 170 18 52 47 132 63 178
l30 82 -23 0 c-20 0 -32 -16 -76 -107 -70 -147 -129 -233 -224 -329 -89 -90
-171 -141 -280 -173 -141 -42 -184 -44 -660 -45 l-390 -1 -2 748 -1 748 456
-3 457 -3 42 -24 c46 -26 96 -83 114 -128 6 -15 12 -57 14 -93 2 -61 4 -65 28
-68 l25 -3 0 395 1 396 -27 0 c-27 0 -27 -1 -29 -73 -2 -103 -36 -160 -128
-217 l-40 -25 -457 -3 -457 -3 1 770 c1 546 4 771 12 774 28 9 1054 -1 1085
-11 63 -21 138 -88 171 -152 24 -49 31 -84 31 -157 0 -60 1 -63 25 -63 20 0
24 5 25 33 3 115 1 588 -2 590 -2 2 -33 -5 -68 -14z"/>
<path d="M8339 5633 c-6 -63 -94 -317 -138 -401 -13 -24 -49 -106 -71 -161
-10 -25 -30 -72 -44 -103 -14 -31 -26 -61 -26 -67 0 -5 -7 -22 -15 -38 -8 -15
-21 -44 -29 -63 -34 -83 -179 -428 -191 -455 -7 -16 -29 -70 -50 -120 -20 -49
-45 -108 -55 -130 -10 -22 -43 -103 -75 -180 -32 -77 -62 -144 -66 -149 -5 -6
-9 -16 -9 -23 0 -7 -11 -36 -24 -65 -14 -30 -34 -78 -46 -107 -11 -30 -29 -73
-39 -95 -10 -23 -47 -108 -81 -191 -34 -82 -70 -168 -80 -190 -22 -50 -84
-198 -86 -205 -1 -7 -31 -76 -56 -130 -11 -25 -26 -61 -33 -80 -38 -105 -128
-297 -161 -343 -96 -133 -227 -210 -368 -216 -60 -3 -66 -5 -59 -31 5 -20 14
-20 503 -20 494 0 498 0 503 21 6 23 1 26 -69 32 -113 11 -184 89 -184 202 0
45 35 165 66 223 7 15 14 30 14 34 0 7 62 168 177 458 25 63 55 140 66 170 12
30 25 60 29 65 6 6 244 10 678 10 660 0 669 0 679 -20 5 -11 26 -65 46 -120
45 -121 102 -271 116 -305 6 -14 17 -45 25 -70 8 -25 19 -54 24 -65 16 -32 90
-235 107 -290 22 -73 14 -151 -23 -205 -37 -55 -77 -79 -146 -86 -73 -8 -77
-10 -71 -33 5 -21 8 -21 563 -21 457 0 559 2 563 13 9 25 -8 34 -76 41 -139
13 -262 89 -350 216 -28 40 -89 170 -136 290 -27 69 -580 1389 -602 1437 -10
23 -19 45 -19 48 0 3 -9 25 -19 48 -10 23 -110 260 -221 527 -111 267 -208
499 -216 515 -13 30 -56 132 -137 332 -36 87 -45 103 -64 103 -13 0 -23 -3
-24 -7z m266 -1323 c147 -393 277 -742 290 -775 12 -33 26 -69 29 -80 6 -20 2
-20 -608 -20 l-614 0 20 50 c11 28 29 73 39 100 11 28 26 64 34 82 8 17 15 33
15 36 0 3 39 104 86 224 47 120 110 281 140 358 82 208 86 218 95 240 17 40
159 405 159 409 0 9 42 97 45 94 2 -2 123 -325 270 -718z"/>
<path d="M17398 5635 c-2 -2 -23 -6 -48 -9 -122 -16 -269 -76 -368 -151 -64
-48 -162 -148 -162 -164 0 -6 -4 -11 -8 -11 -7 0 -85 -124 -88 -140 0 -3 -9
-22 -18 -44 -62 -139 -79 -389 -38 -538 63 -224 109 -281 551 -687 14 -13 76
-70 136 -126 61 -57 126 -117 145 -135 19 -18 85 -78 145 -134 61 -56 137
-127 170 -157 182 -163 249 -305 249 -524 0 -199 -57 -334 -198 -469 -98 -93
-197 -146 -329 -175 -253 -55 -495 1 -650 152 -142 139 -210 310 -211 535 -1
107 -2 112 -22 112 -23 0 -40 -45 -68 -180 -22 -105 -27 -158 -26 -290 0 -196
5 -217 53 -261 110 -100 311 -181 532 -214 17 -3 41 -7 55 -11 58 -13 337 -12
414 2 213 37 369 117 503 255 51 54 134 174 153 223 5 14 15 38 22 54 6 15 12
29 13 32 37 122 53 236 49 362 -2 57 -5 114 -7 128 -22 123 -40 181 -81 262
-19 37 -52 90 -73 118 -29 40 -321 318 -508 485 -21 19 -193 178 -260 240 -17
17 -83 77 -146 135 -238 219 -281 273 -325 401 -28 81 -38 208 -22 289 5 25
11 56 14 70 9 50 74 166 124 222 123 138 281 201 485 193 309 -11 514 -183
544 -454 5 -47 9 -55 28 -56 l21 -2 0 308 0 307 -126 5 c-70 2 -136 7 -147 9
-19 5 -60 13 -135 24 -38 6 -337 13 -342 9z"/>
<path d="M10450 5546 c0 -24 4 -26 43 -27 109 -2 176 -30 243 -101 50 -53 66
-80 83 -137 18 -63 19 -2853 1 -2921 -16 -59 -44 -106 -93 -153 -54 -52 -117
-78 -201 -84 -39 -3 -72 -6 -73 -7 0 0 -3 -10 -5 -21 -3 -20 3 -20 545 -23
l547 -2 0 24 c0 22 -4 24 -73 28 -151 10 -260 94 -298 229 -9 33 -12 404 -13
1539 -1 822 2 1502 6 1511 6 14 44 15 325 13 361 -3 421 -11 543 -71 71 -35
172 -122 222 -193 17 -23 73 -133 89 -175 10 -24 34 -124 44 -180 12 -64 14
-271 4 -340 -26 -188 -133 -370 -279 -476 -39 -29 -154 -86 -203 -101 -113
-34 -258 -50 -487 -52 -89 -1 -95 -2 -98 -22 -3 -19 3 -23 43 -29 136 -20 262
-125 440 -366 28 -38 115 -162 194 -276 373 -537 449 -640 534 -728 48 -50
110 -108 137 -128 56 -42 230 -132 276 -143 16 -4 34 -10 39 -14 9 -7 49 -16
167 -38 26 -5 135 -10 242 -11 l196 -2 0 25 c0 18 -6 26 -17 27 -120 6 -191
23 -288 68 -105 49 -197 120 -323 250 -151 155 -305 352 -567 726 -159 227
-325 416 -422 480 -49 31 -50 33 -25 31 126 -6 322 64 437 157 184 149 307
350 366 597 14 60 19 332 7 415 -4 28 -17 79 -28 115 -97 299 -343 518 -650
579 -30 6 -66 14 -80 18 -14 4 -368 8 -787 10 l-763 4 0 -25z"/>
</g>
</svg>
